<svg width="269" height="279" viewBox="0 0 269 279" fill="none" xmlns="http://www.w3.org/2000/svg">
<path fill-rule="evenodd" clip-rule="evenodd" d="M162.701 267.745V278.613H268.706V175.367H259.196V267.745H162.701Z" fill="#F8B50C"/>
<path fill-rule="evenodd" clip-rule="evenodd" d="M106.004 10.125V0H0V96.187H9.50942V10.125H106.004Z" fill="#F8B50C"/>
<path d="M156.645 53.8934C165.165 57.8934 171.865 62.4634 178.435 69.1634C179.655 70.2534 180.875 71.3534 182.125 72.4734C189.655 80.8634 194.815 91.1334 197.345 102.083C200.985 121.293 200.635 140.103 194.605 158.723C186.735 181.243 173.455 204.143 155.435 220.163C154.775 220.163 154.115 220.163 153.435 220.163C152.775 221.483 152.115 222.803 151.435 224.163C148.915 226.333 146.405 228.363 143.755 230.353C142.995 230.923 142.235 231.493 141.455 232.083C134.425 237.323 127.065 241.853 119.435 246.163C118.495 246.723 117.545 247.283 116.575 247.853C114.565 249.033 112.505 250.113 110.435 251.163C109.775 250.833 109.115 250.503 108.435 250.163C109.415 247.683 109.415 247.683 111.065 244.413C119.455 226.893 121.345 209.963 120.165 190.693C119.925 189.533 119.685 188.363 119.435 187.163C115.865 186.353 115.865 186.353 113.155 186.343C104.625 185.783 96.5746 181.603 89.3946 177.213C77.1246 168.703 69.9446 158.573 63.2646 145.453C59.4146 136.423 57.9046 128.153 58.0046 118.353C58.0046 117.303 58.0146 116.253 58.0246 115.163C58.2946 102.323 61.7846 91.1734 68.4346 80.1634C72.5546 74.3534 77.1546 68.9434 82.4346 64.1634C83.0946 64.1634 83.7546 64.1634 84.4346 64.1634C84.4346 63.5034 84.4346 62.8434 84.4346 62.1634C106.825 47.2634 131.305 43.4734 156.645 53.8934Z" fill="#DA3C04"/>
</svg>
